<svg id="visual" viewBox="0 0 900 600" width="900" height="600" xmlns="http://www.w3.org/2000/svg" xmlns:xlink="http://www.w3.org/1999/xlink" version="1.1"><rect x="0" y="0" width="900" height="600" fill="#0F3D3E"></rect><path d="M0 405L21.5 406.3C43 407.7 86 410.3 128.8 408.5C171.7 406.7 214.3 400.3 257.2 398.8C300 397.3 343 400.7 385.8 408.3C428.7 416 471.3 428 514.2 431.5C557 435 600 430 642.8 425.2C685.7 420.3 728.3 415.7 771.2 416.5C814 417.3 857 423.7 878.5 426.8L900 430L900 601L878.5 601C857 601 814 601 771.2 601C728.3 601 685.7 601 642.8 601C600 601 557 601 514.2 601C471.3 601 428.7 601 385.8 601C343 601 300 601 257.2 601C214.3 601 171.7 601 128.8 601C86 601 43 601 21.5 601L0 601Z" fill="#f1f1f1"></path><path d="M0 431L21.5 430.5C43 430 86 429 128.8 429.2C171.7 429.3 214.3 430.7 257.2 439C300 447.3 343 462.7 385.8 466C428.7 469.3 471.3 460.7 514.2 449.7C557 438.7 600 425.3 642.8 424.8C685.7 424.3 728.3 436.7 771.2 446.5C814 456.3 857 463.7 878.5 467.3L900 471L900 601L878.5 601C857 601 814 601 771.2 601C728.3 601 685.7 601 642.8 601C600 601 557 601 514.2 601C471.3 601 428.7 601 385.8 601C343 601 300 601 257.2 601C214.3 601 171.7 601 128.8 601C86 601 43 601 21.5 601L0 601Z" fill="#b2b2b2"></path><path d="M0 493L21.5 492.2C43 491.3 86 489.7 128.8 487C171.7 484.3 214.3 480.7 257.2 473.7C300 466.7 343 456.3 385.8 450.8C428.7 445.3 471.3 444.7 514.2 444.3C557 444 600 444 642.8 443C685.7 442 728.3 440 771.2 442.3C814 444.7 857 451.3 878.5 454.7L900 458L900 601L878.5 601C857 601 814 601 771.2 601C728.3 601 685.7 601 642.8 601C600 601 557 601 514.2 601C471.3 601 428.7 601 385.8 601C343 601 300 601 257.2 601C214.3 601 171.7 601 128.8 601C86 601 43 601 21.5 601L0 601Z" fill="#777676"></path><path d="M0 487L21.5 491C43 495 86 503 128.8 512.2C171.7 521.3 214.3 531.7 257.2 532.5C300 533.3 343 524.7 385.8 520.7C428.7 516.7 471.3 517.3 514.2 515C557 512.7 600 507.3 642.8 504.2C685.7 501 728.3 500 771.2 506.2C814 512.3 857 525.7 878.5 532.3L900 539L900 601L878.5 601C857 601 814 601 771.2 601C728.3 601 685.7 601 642.8 601C600 601 557 601 514.2 601C471.3 601 428.7 601 385.8 601C343 601 300 601 257.2 601C214.3 601 171.7 601 128.8 601C86 601 43 601 21.5 601L0 601Z" fill="#414040"></path><path d="M0 571L21.5 565.5C43 560 86 549 128.8 549C171.7 549 214.3 560 257.2 560.7C300 561.3 343 551.7 385.8 548.8C428.7 546 471.3 550 514.2 551.2C557 552.3 600 550.7 642.8 551.7C685.7 552.7 728.3 556.3 771.2 557.5C814 558.7 857 557.3 878.5 556.7L900 556L900 601L878.5 601C857 601 814 601 771.2 601C728.3 601 685.7 601 642.8 601C600 601 557 601 514.2 601C471.3 601 428.7 601 385.8 601C343 601 300 601 257.2 601C214.3 601 171.7 601 128.8 601C86 601 43 601 21.5 601L0 601Z" fill="#100f0f"></path></svg>